<?xml version="1.0" encoding="UTF-8"?><svg id="Layer_2" xmlns="http://www.w3.org/2000/svg" viewBox="0 0 136.2 25.72"><g id="Layer_1-2"><path d="M41.62,4.64c1.01,0,1.87.15,2.58.46.71.31,1.29.71,1.73,1.22.44.5.77,1.08.97,1.72.2.65.31,1.31.31,2.01s-.1,1.34-.31,2c-.2.65-.53,1.23-.97,1.74-.45.5-1.02.91-1.73,1.22-.71.31-1.57.46-2.58.46h-3.73v6.04h-3.55V4.64h7.28ZM40.64,12.58c.41,0,.8-.03,1.18-.09.38-.06.71-.19,1-.37.29-.18.52-.44.69-.77s.26-.76.26-1.3-.09-.97-.26-1.3-.4-.59-.69-.77c-.29-.18-.62-.3-1-.37-.38-.06-.77-.09-1.18-.09h-2.76v5.05h2.76Z" style="fill:#121133;"/><path d="M52.13,9.3v2.27h.05c.15-.38.35-.73.61-1.05.26-.32.55-.6.88-.83.33-.23.69-.41,1.06-.53s.77-.19,1.18-.19c.21,0,.44.04.7.12v3.12c-.15-.03-.33-.06-.54-.08-.21-.02-.42-.04-.61-.04-.59,0-1.09.1-1.49.31-.41.2-.73.48-.98.84-.25.35-.43.77-.53,1.24-.11.47-.16.98-.16,1.53v5.5h-3.21v-12.21h3.05Z" style="fill:#121133;"/><path d="M57.54,12.75c.29-.79.69-1.47,1.22-2.03.53-.56,1.16-.99,1.9-1.3s1.57-.46,2.49-.46,1.75.15,2.5.46c.75.31,1.38.74,1.91,1.3.53.56.93,1.24,1.22,2.03.29.79.43,1.68.43,2.66s-.14,1.86-.43,2.64c-.29.79-.69,1.46-1.22,2.02-.53.56-1.17.99-1.91,1.29-.75.3-1.58.45-2.5.45s-1.75-.15-2.49-.45-1.37-.73-1.9-1.29-.94-1.23-1.22-2.02c-.29-.79-.43-1.67-.43-2.64s.14-1.86.43-2.66ZM60.46,16.84c.09.46.25.88.46,1.25.22.37.51.67.87.89.36.22.81.33,1.36.33s1-.11,1.37-.33c.37-.22.66-.52.88-.89.22-.37.37-.79.46-1.25.09-.46.14-.94.14-1.43s-.05-.97-.14-1.44c-.09-.47-.25-.89-.46-1.25-.22-.36-.51-.66-.88-.89-.37-.23-.83-.34-1.37-.34s-1,.11-1.36.34c-.36.23-.65.52-.87.89-.22.36-.37.78-.46,1.25-.09.47-.14.95-.14,1.44s.05.96.14,1.43Z" style="fill:#121133;"/><path d="M77.71,9.3v2.24h-2.35v6.04c0,.57.09.94.27,1.13.18.19.54.28,1.09.28.18,0,.35,0,.52-.02.17-.02.32-.04.48-.07v2.6c-.27.05-.57.08-.9.09s-.66.02-.97.02c-.5,0-.97-.04-1.41-.11s-.84-.21-1.18-.41-.61-.5-.8-.87c-.2-.38-.29-.87-.29-1.49v-7.2h-1.94v-2.24h1.94v-3.66h3.21v3.66h2.35Z" style="fill:#121133;"/><path d="M79.11,13.05c.05-.79.23-1.44.57-1.96s.75-.94,1.27-1.25c.51-.31,1.09-.54,1.73-.67.64-.13,1.29-.2,1.93-.2.59,0,1.18.04,1.79.13.6.09,1.15.26,1.65.51s.9.6,1.22,1.05c.32.45.47,1.04.47,1.78v6.35c0,.55.03,1.08.09,1.58.06.5.17.88.32,1.13h-3.26c-.06-.19-.11-.38-.15-.58-.04-.2-.06-.4-.08-.6-.51.55-1.12.94-1.81,1.16s-1.4.33-2.13.33c-.56,0-1.08-.07-1.56-.21-.48-.14-.9-.36-1.27-.66-.36-.3-.64-.68-.85-1.13-.2-.46-.31-1-.31-1.63,0-.69.12-1.26.35-1.71s.54-.81.9-1.07c.37-.27.79-.47,1.27-.6.47-.13.95-.24,1.44-.32.48-.08.96-.14,1.42-.19.47-.05.88-.12,1.24-.21.36-.09.65-.23.86-.41.21-.18.31-.44.29-.79,0-.36-.06-.65-.17-.86-.11-.21-.26-.38-.45-.5s-.41-.2-.66-.24c-.25-.04-.52-.06-.8-.06-.63,0-1.13.14-1.49.42-.36.28-.57.76-.63,1.42h-3.21ZM86.53,15.53c-.14.13-.31.22-.51.29s-.42.13-.66.18c-.23.05-.48.09-.74.12-.26.03-.51.07-.77.12-.24.05-.48.11-.71.19-.23.08-.44.19-.61.32-.17.13-.31.3-.42.51-.11.2-.16.46-.16.78s.05.55.16.76c.1.2.25.37.43.48.18.12.39.2.63.25.24.05.49.07.75.07.63,0,1.12-.11,1.47-.33.35-.22.6-.48.77-.79.17-.31.27-.62.31-.93s.06-.57.06-.76v-1.25Z" style="fill:#121133;"/><path d="M95.44,4.64v6.14h.04c.39-.63.92-1.09,1.59-1.38.67-.29,1.37-.44,2.09-.44.59,0,1.17.13,1.74.38.57.25,1.09.64,1.55,1.16.46.52.83,1.18,1.12,2s.43,1.77.43,2.89-.14,2.08-.43,2.89c-.29.81-.66,1.48-1.12,2-.46.52-.98.91-1.55,1.16-.57.25-1.15.38-1.74.38-.86,0-1.63-.14-2.31-.43-.68-.28-1.19-.76-1.54-1.44h-.05v1.56h-3.05V4.64h3.21ZM100.64,13.92c-.11-.47-.27-.89-.5-1.25-.23-.36-.51-.65-.85-.86-.34-.21-.75-.32-1.23-.32s-.88.11-1.22.32c-.35.21-.63.5-.86.86-.23.36-.39.78-.5,1.25s-.16.97-.16,1.49.05.99.16,1.46.27.89.5,1.25c.23.36.51.65.86.86.35.21.75.32,1.22.32s.89-.11,1.23-.32c.34-.21.62-.5.85-.86.23-.36.39-.78.5-1.25s.16-.96.16-1.46-.05-1.02-.16-1.49Z" style="fill:#121133;"/><path d="M113.97,21.5v-1.7h-.07c-.41.71-.94,1.22-1.58,1.53-.65.31-1.31.47-1.99.47-.86,0-1.56-.12-2.11-.35-.55-.24-.98-.57-1.3-1-.32-.43-.54-.96-.67-1.58-.13-.62-.19-1.31-.19-2.07v-7.51h3.21v6.89c0,1.01.15,1.76.45,2.25.3.5.84.74,1.61.74.87,0,1.51-.27,1.9-.81s.59-1.44.59-2.68v-6.4h3.21v12.21h-3.05Z" style="fill:#121133;"/><path d="M122.76,4.64v16.86h-3.21V4.64h3.21Z" style="fill:#121133;"/><path d="M125.16,13.05c.05-.79.23-1.44.57-1.96s.75-.94,1.27-1.25c.51-.31,1.09-.54,1.73-.67.64-.13,1.29-.2,1.93-.2.59,0,1.18.04,1.79.13.6.09,1.15.26,1.65.51s.9.6,1.22,1.05c.32.45.47,1.04.47,1.78v6.35c0,.55.03,1.08.09,1.58.06.5.17.88.32,1.13h-3.26c-.06-.19-.11-.38-.15-.58-.04-.2-.06-.4-.08-.6-.51.55-1.12.94-1.81,1.16s-1.4.33-2.13.33c-.56,0-1.08-.07-1.56-.21-.48-.14-.9-.36-1.27-.66-.36-.3-.64-.68-.85-1.13-.2-.46-.31-1-.31-1.63,0-.69.12-1.26.35-1.71s.54-.81.9-1.07c.37-.27.79-.47,1.27-.6.47-.13.95-.24,1.44-.32.48-.08.96-.14,1.42-.19.47-.05.88-.12,1.24-.21.36-.09.65-.23.86-.41.21-.18.31-.44.29-.79,0-.36-.06-.65-.17-.86-.11-.21-.26-.38-.45-.5s-.41-.2-.66-.24c-.25-.04-.52-.06-.8-.06-.63,0-1.13.14-1.49.42-.36.28-.57.76-.63,1.42h-3.21ZM132.58,15.53c-.14.13-.31.22-.51.29s-.42.13-.66.18c-.23.05-.48.09-.74.12-.26.03-.51.07-.77.12-.24.05-.48.11-.71.19-.23.08-.44.19-.61.32-.17.13-.31.3-.42.51-.11.2-.16.46-.16.78s.05.55.16.76c.1.2.25.37.43.48.18.12.39.2.63.25.24.05.49.07.75.07.63,0,1.12-.11,1.47-.33.35-.22.6-.48.77-.79.17-.31.27-.62.31-.93s.06-.57.06-.76v-1.25Z" style="fill:#121133;"/><path d="M0,0v25.72h25.72V0H0ZM14.87,21.02H3.75V4.56h11.12v16.46Z" style="fill:#312a7a;"/></g></svg>